<svg width="18" height="19" viewBox="0 0 18 19" fill="none" xmlns="http://www.w3.org/2000/svg">
<path d="M4.45049 2.44209C4.67113 1.53218 5.96523 1.53218 6.18587 2.44209L6.79297 4.94576C6.87175 5.27062 7.1254 5.52427 7.45026 5.60304L9.95393 6.21015C10.8638 6.43079 10.8638 7.72489 9.95393 7.94552L7.45026 8.55263C7.1254 8.6314 6.87175 8.88505 6.79297 9.20991L6.18587 11.7136C5.96523 12.6235 4.67113 12.6235 4.45049 11.7136L3.84339 9.20991C3.76462 8.88505 3.51097 8.6314 3.1861 8.55263L0.682432 7.94552C-0.227477 7.72489 -0.227477 6.43079 0.682431 6.21015L3.1861 5.60305C3.51097 5.52427 3.76462 5.27062 3.84339 4.94576L4.45049 2.44209Z" fill="black"/>
<path d="M11.7388 11.1796C11.8745 10.6197 12.6709 10.6197 12.8067 11.1796L13.1803 12.7203C13.2288 12.9203 13.3849 13.0763 13.5848 13.1248L15.1255 13.4984C15.6854 13.6342 15.6854 14.4306 15.1255 14.5663L13.5848 14.9399C13.3849 14.9884 13.2288 15.1445 13.1803 15.3444L12.8067 16.8852C12.6709 17.4451 11.8745 17.4451 11.7388 16.8852L11.3652 15.3444C11.3167 15.1445 11.1606 14.9884 10.9607 14.9399L9.41996 14.5663C8.86001 14.4306 8.86001 13.6342 9.41996 13.4984L10.9607 13.1248C11.1606 13.0763 11.3167 12.9203 11.3652 12.7203L11.7388 11.1796Z" fill="black"/>
<path d="M14.3769 2.34207C14.466 1.97461 14.9886 1.97461 15.0777 2.34207L15.3229 3.35317C15.3547 3.48436 15.4571 3.5868 15.5883 3.61861L16.5994 3.86379C16.9669 3.95289 16.9669 4.47551 16.5994 4.56461L15.5883 4.80979C15.4571 4.8416 15.3547 4.94404 15.3229 5.07523L15.0777 6.08633C14.9886 6.45379 14.466 6.45379 14.3769 6.08633L14.1317 5.07523C14.0999 4.94404 13.9974 4.8416 13.8662 4.80979L12.8551 4.56461C12.4877 4.47551 12.4877 3.95289 12.8551 3.86379L13.8662 3.61861C13.9974 3.5868 14.0999 3.48436 14.1317 3.35317L14.3769 2.34207Z" fill="black"/>
<path fill-rule="evenodd" clip-rule="evenodd" d="M14.7273 2.52146L14.5272 3.34669C14.4472 3.67656 14.1896 3.93411 13.8598 4.01409L13.0345 4.2142L13.8598 4.41431C14.1896 4.49429 14.4472 4.75184 14.5272 5.08171L14.7273 5.90694L14.9274 5.08171C15.0074 4.75184 15.2649 4.49429 15.5948 4.41431L16.42 4.2142L15.5948 4.01409C15.2649 3.93411 15.0074 3.67656 14.9274 3.34669L14.7273 2.52146ZM15.1277 2.07462C15.0259 1.65467 14.4286 1.65467 14.3268 2.07462L14.0466 3.23016C14.0102 3.3801 13.8932 3.49717 13.7432 3.53353L12.5877 3.81373C12.1677 3.91556 12.1677 4.51284 12.5877 4.61467L13.7432 4.89487C13.8932 4.93123 14.0102 5.0483 14.0466 5.19824L14.3268 6.35378C14.4286 6.77374 15.0259 6.77374 15.1277 6.35378L15.4079 5.19824C15.4443 5.0483 15.5614 4.93123 15.7113 4.89487L16.8669 4.61467C17.2868 4.51284 17.2868 3.91556 16.8669 3.81373L15.7113 3.53353C15.5614 3.49717 15.4443 3.3801 15.4079 3.23016L15.1277 2.07462Z" fill="black"/>
<path d="M4.90909 18.1233C4.45722 18.1233 4.09091 17.757 4.09091 17.3051C4.09091 16.8532 4.45722 16.4869 4.90909 16.4869C5.36096 16.4869 5.72727 16.8532 5.72727 17.3051C5.72727 17.757 5.36096 18.1233 4.90909 18.1233Z" fill="black"/>
<path d="M0.818182 14.8506C0.366312 14.8506 -1.97518e-08 14.4843 0 14.0324C1.97518e-08 13.5805 0.366313 13.2142 0.818182 13.2142C1.27005 13.2142 1.63636 13.5805 1.63636 14.0324C1.63636 14.4843 1.27005 14.8506 0.818182 14.8506Z" fill="black"/>
<path d="M9.81818 1.75965C9.36631 1.75965 9 1.39334 9 0.941473C9 0.489603 9.36631 0.123291 9.81818 0.123291C10.2701 0.123291 10.6364 0.489604 10.6364 0.941473C10.6364 1.39334 10.2701 1.75965 9.81818 1.75965Z" fill="black"/>
<path d="M17.1818 10.7597C16.7299 10.7597 16.3636 10.3933 16.3636 9.94147C16.3636 9.4896 16.7299 9.12329 17.1818 9.12329C17.6337 9.12329 18 9.4896 18 9.94147C18 10.3933 17.6337 10.7597 17.1818 10.7597Z" fill="black"/>
</svg>
